<svg xmlns="http://www.w3.org/2000/svg" xmlns:xlink="http://www.w3.org/1999/xlink" width="231" height="179" viewBox="0 0 231 179">
    <defs>
        <path id="a" d="M229.12.517h-21.033c-1.386 0-3.244.874-4.128 1.942l-69.464 83.963-9.618-9.12 61.92-74.843c.884-1.068.473-1.942-.913-1.942h-36.718c-1.386 0-3.244.874-4.128 1.942l-43.56 52.654L45.731 2.25c-1.006-.954-2.963-1.734-4.35-1.734H3.063c-1.386 0-1.696.78-.691 1.734l80.044 75.903L.965 176.6c-.882 1.068-.472 1.941.914 1.941h36.719c1.386 0 3.243-.874 4.127-1.941l63.09-76.257 9.617 9.12L59.887 176.6c-.884 1.068-.473 1.941.914 1.941h21.033c1.386 0 3.244-.874 4.128-1.941l44.081-53.282 56.407 53.49c1.007.954 2.963 1.734 4.35 1.734h38.32c1.386 0 1.697-.78.692-1.734l-80.705-76.532L230.034 2.46c.884-1.068.473-1.942-.914-1.942"/>
    </defs>
    <use fill="#383838" fill-rule="evenodd" xlink:href="#a"/>
</svg>
